<svg data-v-29081953="" xmlns="http://www.w3.org/2000/svg" viewBox="0 0 300 300"><!----><defs data-v-29081953=""><!----></defs><rect data-v-29081953="" fill="#3E3734" x="0" y="0" width="300px" height="300px" class="logo-background-square"></rect><defs data-v-29081953=""><!----></defs><g data-v-29081953="" id="7c179186-4198-4685-98a0-0bf4b7148d6d" fill="#ffffff" transform="matrix(1.6122772241715955,0,0,1.6122772241715955,90.64640235650334,126.76320392804772)"><path d="M2.60 3.51L2.60 3.51L5.39 3.47L5.39 3.47Q8.16 3.47 9.51 4.60L9.51 4.60L9.51 4.60Q10.85 5.73 10.85 8.06L10.85 8.06L10.85 8.06Q10.85 9.51 10.33 10.65L10.33 10.65L10.33 10.65Q9.81 11.80 8.82 12.46L8.82 12.46L8.82 12.46Q7.59 13.29 5.45 13.29L5.45 13.29L5.18 13.29L2.60 13.27L1.51 13.27L1.51 12.96L1.51 12.96Q1.75 12.07 1.75 10.19L1.75 10.19L1.75 6.58L1.75 6.58Q1.75 4.69 1.51 3.79L1.51 3.79L1.51 3.49L1.51 3.49Q2.13 3.51 2.60 3.51ZM3.74 7.78L3.74 7.78L3.74 8.60L3.74 8.60Q3.74 11.61 3.78 12.07L3.78 12.07L3.78 12.07Q4.69 12.14 5.38 12.14L5.38 12.14L5.38 12.14Q7.13 12.14 7.80 11.75L7.80 11.75L7.80 11.75Q8.74 10.77 8.74 8.29L8.74 8.29L8.74 8.29Q8.74 6.23 7.90 5.37L7.90 5.37L7.90 5.37Q7.07 4.51 5.12 4.51L5.12 4.51L5.12 4.51Q5.07 4.51 3.77 4.52L3.77 4.52L3.77 4.52Q3.74 5.19 3.74 7.78ZM16.27 11.68L16.27 10.49L16.27 10.49Q15.76 10.30 15.15 10.30L15.15 10.30L15.15 10.30Q14.55 10.30 14.22 10.53L14.22 10.53L14.22 10.53Q14.01 10.79 14.01 11.23L14.01 11.23L14.01 11.23Q14.01 12.32 14.97 12.32L14.97 12.32L14.97 12.32Q15.75 12.32 16.27 11.68L16.27 11.68ZM14.39 13.54L14.39 13.54L14.39 13.54Q13.51 13.54 12.84 13.01L12.84 13.01L12.84 13.01Q12.17 12.47 12.17 11.47L12.17 11.47L12.17 11.47Q12.17 9.52 15.01 9.52L15.01 9.52L16.25 9.58L16.25 8.72L16.25 8.72Q16.25 7.99 15.89 7.55L15.89 7.55L15.89 7.55Q15.53 7.10 14.77 7.10L14.77 7.10L14.77 7.10Q14.60 7.10 14.34 7.27L14.34 7.27L14.34 7.27Q14.07 7.45 13.89 7.63L13.89 7.63L13.89 7.63Q13.31 8.18 12.96 8.53L12.96 8.53L12.96 8.53Q12.26 7.70 12.21 6.86L12.21 6.86L12.21 6.86Q14 6.30 15.23 6.30L15.23 6.30L15.23 6.30Q16.46 6.30 17.29 6.87L17.29 6.87L17.29 6.87Q18.12 7.45 18.12 8.68L18.12 8.68L18.12 10.88L18.12 10.88Q18.12 11.51 18.33 12.08L18.33 12.08L18.33 12.08Q18.54 12.66 18.84 12.85L18.84 12.85L18.87 13.16L16.87 13.58L16.87 13.58Q16.65 13.16 16.45 12.40L16.45 12.40L16.45 12.40Q16.09 12.80 15.86 12.98L15.86 12.98L15.86 12.98Q15.64 13.17 15.24 13.36L15.24 13.36L15.24 13.36Q14.84 13.54 14.39 13.54ZM24.88 6.30L24.88 6.30L24.88 6.30Q25.93 6.30 26.50 6.95L26.50 6.95L26.50 6.95Q27.08 7.60 27.08 8.83L27.08 8.83L27.08 10.61L27.08 10.61Q27.08 12.00 27.50 12.98L27.50 12.98L27.50 13.29L25.03 13.29L25.03 12.98L25.03 12.98Q25.27 12.32 25.27 11.09L25.27 11.09L25.27 9.34L25.27 9.34Q25.27 8.53 25.07 8.14L25.07 8.14L25.07 8.14Q24.88 7.76 24.23 7.76L24.23 7.76L24.23 7.76Q23.59 7.76 22.60 8.34L22.60 8.34L22.60 10.64L22.60 10.64Q22.60 12.11 23.00 12.98L23.00 12.98L23.00 13.29L20.55 13.29L20.55 12.98L20.55 12.98Q20.79 12.26 20.79 10.99L20.79 10.99L20.79 9.11L20.79 9.11Q20.79 7.45 19.95 7.03L19.95 7.03L19.95 6.72L22.22 6.29L22.37 6.55L22.37 6.55Q22.48 6.89 22.53 7.45L22.53 7.45L22.53 7.45Q23.24 6.87 23.77 6.59L23.77 6.59L23.77 6.59Q24.29 6.30 24.88 6.30ZM31.15 3.16L31.30 3.25L31.30 3.25Q31.43 3.36 31.48 3.72L31.48 3.72L31.48 3.72Q31.53 4.09 31.53 4.28L31.53 4.28L31.53 4.28Q31.53 4.48 31.50 4.63L31.50 4.63L31.37 4.75L31.37 4.75Q30.76 4.93 29.76 5.00L29.76 5.00L29.61 4.93L29.61 4.93Q29.50 4.75 29.43 4.33L29.43 4.33L29.43 4.33Q29.37 3.91 29.37 3.74L29.37 3.74L29.37 3.74Q29.37 3.58 29.37 3.53L29.37 3.53L29.50 3.42L29.50 3.42Q30.25 3.16 31.00 3.16L31.00 3.16L31.15 3.16ZM31.57 7.78L31.57 7.78L31.57 10.78L31.57 10.78Q31.57 12.11 31.98 12.98L31.98 12.98L31.98 13.29L29.53 13.29L29.53 12.98L29.53 12.98Q29.76 12.26 29.76 11.09L29.76 11.09L29.76 9.02L29.76 9.02Q29.76 8.25 29.53 7.73L29.53 7.73L29.53 7.73Q29.29 7.22 28.92 7.03L28.92 7.03L28.92 6.72L31.49 6.24L31.65 6.52L31.65 6.52Q31.57 6.85 31.57 7.78ZM36.53 12.38L36.53 12.38L36.53 12.38Q37.32 12.38 37.32 11.61L37.32 11.61L37.32 11.61Q37.32 10.89 35.97 10.53L35.97 10.53L35.97 10.53Q35.41 10.37 34.85 10.18L34.85 10.18L34.85 10.18Q34.29 9.98 33.89 9.55L33.89 9.55L33.89 9.55Q33.50 9.11 33.50 8.44L33.50 8.44L33.50 8.44Q33.50 7.48 34.37 6.94L34.37 6.94L34.37 6.94Q35.24 6.40 36.48 6.40L36.48 6.40L36.48 6.40Q37.73 6.40 39.09 7.00L39.09 7.00L39.09 7.00Q39.02 7.62 38.33 8.48L38.33 8.48L38.33 8.48Q37.77 7.92 37.17 7.63L37.17 7.63L37.17 7.63Q36.57 7.34 36.12 7.34L36.12 7.34L36.12 7.34Q35.67 7.34 35.43 7.43L35.43 7.43L35.43 7.43Q35.22 7.62 35.22 8.03L35.22 8.03L35.22 8.03Q35.22 8.44 35.62 8.67L35.62 8.67L35.62 8.67Q36.02 8.89 36.60 9.02L36.60 9.02L36.60 9.02Q37.17 9.16 37.74 9.35L37.74 9.35L37.74 9.35Q38.32 9.55 38.72 10.02L38.72 10.02L38.72 10.02Q39.12 10.49 39.12 11.24L39.12 11.24L39.12 11.24Q39.12 12.33 38.27 12.89L38.27 12.89L38.27 12.89Q37.42 13.44 36.02 13.44L36.02 13.44L36.02 13.44Q34.62 13.44 33.35 12.64L33.35 12.64L33.35 12.64Q33.40 11.80 33.98 11.09L33.98 11.09L33.98 11.09Q35.36 12.38 36.53 12.38ZM42.85 8.34L42.85 10.65L42.85 10.65Q42.85 12.24 43.20 12.98L43.20 12.98L43.20 13.29L40.81 13.29L40.81 12.98L40.81 12.98Q41.05 12.21 41.05 10.95L41.05 10.95L41.05 5.45L41.05 5.45Q41.05 4.24 40.42 3.64L40.42 3.64L40.42 3.33L42.73 2.84L42.90 3.15L42.90 3.15Q42.85 3.54 42.85 5.89L42.85 5.89L42.85 7.43L42.85 7.43Q43.58 6.86 44.11 6.58L44.11 6.58L44.11 6.58Q44.65 6.30 45.26 6.30L45.26 6.30L45.26 6.30Q46.38 6.30 46.98 6.95L46.98 6.95L46.98 6.95Q47.59 7.60 47.59 8.83L47.59 8.83L47.59 10.61L47.59 10.61Q47.59 12.00 48.01 12.98L48.01 12.98L48.01 13.29L45.54 13.29L45.54 12.98L45.54 12.98Q45.78 12.32 45.78 11.09L45.78 11.09L45.78 9.34L45.78 9.34Q45.78 8.51 45.56 8.13L45.56 8.13L45.56 8.13Q45.35 7.76 44.64 7.76L44.64 7.76L44.64 7.76Q43.93 7.76 42.85 8.34L42.85 8.34ZM54.85 12.98L54.85 13.29L52.93 13.29L52.93 12.98L52.93 12.98Q53.16 12.14 53.16 9.80L53.16 9.80L53.16 6.96L53.16 6.96Q53.16 4.87 52.98 3.81L52.98 3.81L52.98 3.50L55.19 3.35L60.12 10.26L60.12 6.58L60.12 6.58Q60.12 5.87 60.02 5.00L60.02 5.00L60.02 5.00Q59.92 4.14 59.79 3.79L59.79 3.79L59.79 3.49L61.77 3.49L61.77 3.79L61.77 3.79Q61.68 4.14 61.61 5.16L61.61 5.16L61.61 5.16Q61.54 6.17 61.54 6.97L61.54 6.97L61.54 10.30L61.54 10.30Q61.54 11.12 61.63 12.08L61.63 12.08L61.63 12.08Q61.71 13.05 61.77 13.26L61.77 13.26L59.93 13.44L54.59 5.95L54.59 10.21L54.59 10.21Q54.59 11.97 54.85 12.98L54.85 12.98ZM67.63 11.68L67.63 10.49L67.63 10.49Q67.13 10.30 66.52 10.30L66.52 10.30L66.52 10.30Q65.91 10.30 65.59 10.53L65.59 10.53L65.59 10.53Q65.38 10.79 65.38 11.23L65.38 11.23L65.38 11.23Q65.38 12.32 66.33 12.32L66.33 12.32L66.33 12.32Q67.12 12.32 67.63 11.68L67.63 11.68ZM65.76 13.54L65.76 13.54L65.76 13.54Q64.88 13.54 64.20 13.01L64.20 13.01L64.20 13.01Q63.53 12.47 63.53 11.47L63.53 11.47L63.53 11.47Q63.53 9.52 66.37 9.52L66.37 9.52L67.62 9.58L67.62 8.72L67.62 8.72Q67.62 7.99 67.26 7.55L67.26 7.55L67.26 7.55Q66.89 7.10 66.14 7.10L66.14 7.10L66.14 7.10Q65.97 7.10 65.70 7.27L65.70 7.27L65.70 7.27Q65.44 7.45 65.25 7.63L65.25 7.63L65.25 7.63Q64.68 8.18 64.33 8.53L64.33 8.53L64.33 8.53Q63.63 7.70 63.57 6.86L63.57 6.86L63.57 6.86Q65.37 6.30 66.60 6.30L66.60 6.30L66.60 6.30Q67.83 6.30 68.66 6.87L68.66 6.87L68.66 6.87Q69.48 7.45 69.48 8.68L69.48 8.68L69.48 10.88L69.48 10.88Q69.48 11.51 69.69 12.08L69.69 12.08L69.69 12.08Q69.90 12.66 70.21 12.85L70.21 12.85L70.24 13.16L68.24 13.58L68.24 13.58Q68.01 13.16 67.82 12.40L67.82 12.40L67.82 12.40Q67.45 12.80 67.23 12.98L67.23 12.98L67.23 12.98Q67.00 13.17 66.60 13.36L66.60 13.36L66.60 13.36Q66.21 13.54 65.76 13.54ZM74.49 12.38L74.49 12.38L74.49 12.38Q75.29 12.38 75.29 11.61L75.29 11.61L75.29 11.61Q75.29 10.89 73.93 10.53L73.93 10.53L73.93 10.53Q73.37 10.37 72.81 10.18L72.81 10.18L72.81 10.18Q72.25 9.98 71.86 9.55L71.86 9.55L71.86 9.55Q71.47 9.11 71.47 8.44L71.47 8.44L71.47 8.44Q71.47 7.48 72.34 6.94L72.34 6.94L72.34 6.94Q73.21 6.40 74.45 6.40L74.45 6.40L74.45 6.40Q75.70 6.40 77.06 7.00L77.06 7.00L77.06 7.00Q76.99 7.62 76.30 8.48L76.30 8.48L76.30 8.48Q75.74 7.92 75.14 7.63L75.14 7.63L75.14 7.63Q74.54 7.34 74.09 7.34L74.09 7.34L74.09 7.34Q73.64 7.34 73.40 7.43L73.40 7.43L73.40 7.43Q73.19 7.62 73.19 8.03L73.19 8.03L73.19 8.03Q73.19 8.44 73.59 8.67L73.59 8.67L73.59 8.67Q73.99 8.89 74.56 9.02L74.56 9.02L74.56 9.02Q75.14 9.16 75.71 9.35L75.71 9.35L75.71 9.35Q76.29 9.55 76.69 10.02L76.69 10.02L76.69 10.02Q77.08 10.49 77.08 11.24L77.08 11.24L77.08 11.24Q77.08 12.33 76.24 12.89L76.24 12.89L76.24 12.89Q75.39 13.44 73.99 13.44L73.99 13.44L73.99 13.44Q72.59 13.44 71.32 12.64L71.32 12.64L71.32 12.64Q71.37 11.80 71.95 11.09L71.95 11.09L71.95 11.09Q73.33 12.38 74.49 12.38ZM81.45 13.55L81.45 13.55L81.45 13.55Q80.23 13.55 79.27 12.64L79.27 12.64L79.27 12.64Q78.30 11.73 78.30 10.18L78.30 10.18L78.30 10.18Q78.30 8.64 79.32 7.47L79.32 7.47L79.32 7.47Q80.35 6.30 81.97 6.30L81.97 6.30L81.97 6.30Q83.34 6.30 84.01 7.18L84.01 7.18L84.01 7.18Q84.69 8.06 84.69 9.62L84.69 9.62L84.15 10.16L80.32 10.16L80.32 10.16Q80.33 11.17 80.86 11.72L80.86 11.72L80.86 11.72Q81.38 12.26 82.12 12.26L82.12 12.26L82.12 12.26Q82.85 12.26 84.34 11.49L84.34 11.49L84.69 12.03L84.69 12.03Q84.42 12.28 84.08 12.54L84.08 12.54L84.08 12.54Q83.75 12.81 82.96 13.18L82.96 13.18L82.96 13.18Q82.17 13.55 81.45 13.55ZM81.65 7.20L81.65 7.20L81.65 7.20Q81.13 7.20 80.82 7.41L80.82 7.41L80.82 7.41Q80.60 7.76 80.47 8.33L80.47 8.33L80.47 8.33Q80.35 8.90 80.33 9.35L80.33 9.35L82.78 9.21L82.78 9.21Q82.78 7.20 81.65 7.20ZM89.01 13.55L89.01 13.55L89.01 13.55Q87.79 13.55 86.83 12.64L86.83 12.64L86.83 12.64Q85.86 11.73 85.86 10.18L85.86 10.18L85.86 10.18Q85.86 8.64 86.88 7.47L86.88 7.47L86.88 7.47Q87.91 6.30 89.53 6.30L89.53 6.30L89.53 6.30Q90.90 6.30 91.57 7.18L91.57 7.18L91.57 7.18Q92.25 8.06 92.25 9.62L92.25 9.62L91.71 10.16L87.88 10.16L87.88 10.16Q87.89 11.17 88.42 11.72L88.42 11.72L88.42 11.72Q88.94 12.26 89.68 12.26L89.68 12.26L89.68 12.26Q90.41 12.26 91.90 11.49L91.90 11.49L92.25 12.03L92.25 12.03Q91.98 12.28 91.64 12.54L91.64 12.54L91.64 12.54Q91.31 12.81 90.52 13.18L90.52 13.18L90.52 13.18Q89.73 13.55 89.01 13.55ZM89.21 7.20L89.21 7.20L89.21 7.20Q88.69 7.20 88.38 7.41L88.38 7.41L88.38 7.41Q88.16 7.76 88.03 8.33L88.03 8.33L88.03 8.33Q87.91 8.90 87.89 9.35L87.89 9.35L90.34 9.21L90.34 9.21Q90.34 7.20 89.21 7.20ZM98.36 6.30L98.36 6.30L98.36 6.30Q99.69 6.30 100.13 7.48L100.13 7.48L100.13 7.48Q100.59 7.10 100.88 6.89L100.88 6.89L100.88 6.89Q101.16 6.68 101.60 6.49L101.60 6.49L101.60 6.49Q102.03 6.30 102.42 6.30L102.42 6.30L102.42 6.30Q103.47 6.30 104.05 6.95L104.05 6.95L104.05 6.95Q104.62 7.60 104.62 8.83L104.62 8.83L104.62 10.75L104.62 10.75Q104.62 12.00 105.04 12.98L105.04 12.98L105.04 13.29L102.58 13.29L102.58 12.98L102.58 12.98Q102.82 12.32 102.82 11.19L102.82 11.19L102.82 9.34L102.82 9.34Q102.82 8.54 102.62 8.15L102.62 8.15L102.62 8.15Q102.42 7.76 101.80 7.76L101.80 7.76L101.80 7.76Q101.18 7.76 100.31 8.25L100.31 8.25L100.31 8.25Q100.34 8.61 100.34 8.83L100.34 8.83L100.34 10.75L100.34 10.75Q100.34 12.00 100.76 12.98L100.76 12.98L100.76 13.29L98.43 13.29L98.43 12.98L98.43 12.98Q98.67 12.32 98.67 11.19L98.67 11.19L98.67 9.34L98.67 9.34Q98.67 8.54 98.49 8.15L98.49 8.15L98.49 8.15Q98.31 7.76 97.73 7.76L97.73 7.76L97.73 7.76Q97.15 7.76 96.18 8.34L96.18 8.34L96.18 10.78L96.18 10.78Q96.18 12.11 96.59 12.98L96.59 12.98L96.59 13.29L94.14 13.29L94.14 12.98L94.14 12.98Q94.37 12.26 94.37 11.09L94.37 11.09L94.37 9.02L94.37 9.02Q94.37 7.45 93.53 7.03L93.53 7.03L93.53 6.72L95.80 6.29L95.94 6.55L95.94 6.55Q96.05 6.83 96.11 7.45L96.11 7.45L96.11 7.45Q96.77 6.86 97.27 6.58L97.27 6.58L97.27 6.58Q97.76 6.30 98.36 6.30Z"></path></g><defs data-v-29081953=""><!----></defs><g data-v-29081953="" id="4302bfbb-cf64-4f2a-938a-64d9072dbbf2" stroke="none" fill="#C67D4E" transform="matrix(0.3131323511689576,0,0,0.3131323511689576,40,129.95953414943136)"><path d="M126 73a2 2 0 0 0 0-4H98.3a2 2 0 0 0-2 1.6 33 33 0 0 1-64.68 0 2 2 0 0 0-2-1.6H2a2 2 0 0 0 0 4h26.1a37 37 0 0 0 15.1 21.56L38.13 100H2a2 2 0 0 0 0 4h37a2 2 0 0 0 1.46-.64l6.24-6.69A36.91 36.91 0 0 0 96 82.48l7.17 5.6a2 2 0 0 0 1.23.42H126a2 2 0 0 0 0-4h-20.87L98 78.94l-.12-.08a36.61 36.61 0 0 0 2-5.87z"></path><path d="M41 64a2 2 0 0 0-4 0 26.78 26.78 0 0 0 10.53 21.39A2 2 0 0 0 50 82.21 22.81 22.81 0 0 1 41 64zM64 37a2 2 0 0 0 0 4 23 23 0 0 1 0 46 22.65 22.65 0 0 1-4.82-.51 2 2 0 0 0-.85 3.91A26.68 26.68 0 0 0 64 91a27 27 0 0 0 0-54z"></path><path d="M64 81a2 2 0 0 0 0-4 13 13 0 1 1 13-13 2 2 0 0 0 4 0 17 17 0 1 0-17 17zM99.9 55a37.19 37.19 0 0 0-11.24-18.57 2 2 0 0 0-2.67 3 33.11 33.11 0 0 1 10.34 18 2 2 0 0 0 2 1.6H112a2 2 0 0 0 2-2v-6.41a7 7 0 1 0-4 .15V55z"></path><circle cx="64" cy="64" r="7"></circle><path d="M2 11h26a2 2 0 0 0 1.46-.64L35.4 4h49.05l16.17 10.67a2 2 0 0 0 1.1.33H126a2 2 0 0 0 0-4h-23.67L86.16.33A2 2 0 0 0 85.05 0H34.53a2 2 0 0 0-1.46.64L27.13 7H2a2 2 0 0 0 0 4z"></path><path d="M2 20h32a2 2 0 0 0 1.46-.64l6.53-7a2 2 0 0 0-2.92-2.73L33.13 16H2a2 2 0 0 0 0 4zM2 28h36.13l5.07 5.44A37 37 0 0 0 28.1 55H18v-9.25a7 7 0 1 0-4-.11V57a2 2 0 0 0 2 2h13.7a2 2 0 0 0 2-1.6A33.1 33.1 0 0 1 64 31a32.72 32.72 0 0 1 12.57 2.48 2 2 0 1 0 1.53-3.7 36.91 36.91 0 0 0-31.4 1.54l-6.24-6.69A2 2 0 0 0 39 24H2a2 2 0 0 0 0 4zM126 24H99.33L83.16 13.33a2 2 0 0 0-1.1-.33H58.71a7 7 0 1 0 0 4h22.74l16.18 10.67a2 2 0 0 0 1.1.33H126a2 2 0 0 0 0-4zM126 113h-24.27a2 2 0 0 0-1.1.33L84.45 124H35.4l-5.94-6.36A2 2 0 0 0 28 117H2a2 2 0 0 0 0 4h25.13l5.94 6.36a2 2 0 0 0 1.46.64h50.52a2 2 0 0 0 1.1-.33L102.33 117H126a2 2 0 0 0 0-4z"></path><path d="M2 112h31.13l5.94 6.36a2 2 0 1 0 2.93-2.72l-6.53-7A2 2 0 0 0 34 108H2a2 2 0 0 0 0 4zM126 100H98.73a2 2 0 0 0-1.1.33L81.45 111H58.71a7 7 0 1 0 0 4h23.34a2 2 0 0 0 1.1-.33L99.33 104H126a2 2 0 0 0 0-4z"></path></g><defs data-v-29081953=""><!----></defs><g data-v-29081953="" id="333e96a4-59a3-4a53-81e0-4a57cf5a633f" fill="#ffffff" transform="matrix(0.6675694430185011,0,0,0.6675694430185011,92.97412984113103,156.75535566035262)"><path d="M0.66 5.35L0.16 5.33L0.16 5.33Q0.28 4.17 0.36 3.08L0.36 3.08L8.44 3.08L8.44 3.08Q8.36 4.13 8.33 4.53L8.33 4.53L8.33 4.53Q8.29 5.26 8.27 5.32L8.27 5.32L7.77 5.30L7.77 5.30Q7.85 4.34 7.85 4.16L7.85 4.16L7.85 4.16Q7.85 3.88 7.71 3.79L7.71 3.79L7.71 3.79Q7.54 3.69 7.14 3.69L7.14 3.69L5.53 3.69L5.53 3.69Q5.02 3.69 4.90 3.79L4.90 3.79L4.90 3.79Q4.81 3.87 4.80 4.36L4.80 4.36L4.80 11.22L4.80 11.22Q4.80 11.66 4.94 11.76L4.94 11.76L4.94 11.76Q5.10 11.87 5.61 11.87L5.61 11.87L6.17 11.87L6.19 12.41L2.50 12.40L2.50 11.87L2.71 11.87L2.71 11.87Q3.38 11.87 3.53 11.79L3.53 11.79L3.53 11.79Q3.67 11.70 3.67 11.28L3.67 11.28L3.67 4.48L3.67 4.48Q3.67 3.92 3.57 3.80L3.57 3.80L3.57 3.80Q3.47 3.69 3.05 3.69L3.05 3.69L1.58 3.69L1.58 3.69Q1.39 3.69 1.33 3.71L1.33 3.71L1.33 3.71Q1.26 3.72 1.15 3.72L1.15 3.72L1.15 3.72Q1.12 3.72 1.00 3.79L1.00 3.79L1.00 3.79Q0.92 3.84 0.90 3.86L0.90 3.86L0.90 3.86Q0.87 3.88 0.83 3.99L0.83 3.99L0.83 3.99Q0.80 4.05 0.77 4.14L0.77 4.14L0.77 4.14Q0.75 4.21 0.72 4.36L0.72 4.36L0.72 4.36Q0.70 4.59 0.70 4.61L0.70 4.61L0.70 4.61Q0.70 4.80 0.68 4.95L0.68 4.95L0.68 4.95Q0.68 5.02 0.68 5.15L0.68 5.15L0.68 5.15Q0.67 5.29 0.66 5.35L0.66 5.35ZM16.55 3.64L16.18 3.64L16.18 3.08L19.67 3.08L19.67 3.64L19.30 3.64L19.30 3.64Q18.80 3.64 18.65 3.75L18.65 3.75L18.65 3.75Q18.51 3.84 18.50 4.25L18.50 4.25L18.50 6.91L23.06 6.91L23.06 4.14L23.06 4.14Q23.06 3.77 22.96 3.71L22.96 3.71L22.96 3.71Q22.85 3.64 22.33 3.64L22.33 3.64L21.74 3.64L21.72 3.08L25.28 3.08L25.28 3.64L24.89 3.64L24.89 3.64Q24.41 3.64 24.30 3.74L24.30 3.74L24.30 3.74Q24.19 3.83 24.19 4.22L24.19 4.22L24.19 11.29L24.19 11.29Q24.19 11.67 24.33 11.77L24.33 11.77L24.33 11.77Q24.49 11.87 25.03 11.87L25.03 11.87L25.50 11.87L25.49 12.41L22.00 12.41L21.99 11.87L22.40 11.87L22.40 11.87Q22.87 11.87 22.96 11.77L22.96 11.77L22.96 11.77Q23.06 11.67 23.06 11.25L23.06 11.25L23.06 7.58L18.50 7.58L18.50 11.25L18.50 11.25Q18.50 11.67 18.66 11.77L18.66 11.77L18.66 11.77Q18.81 11.87 19.52 11.87L19.52 11.87L19.92 11.87L19.89 12.41L16.31 12.41L16.30 11.87L16.66 11.87L16.66 11.87Q17.21 11.87 17.27 11.80L17.27 11.80L17.27 11.80Q17.37 11.70 17.37 11.25L17.37 11.25L17.37 4.09L17.37 4.09Q17.37 3.76 17.23 3.71L17.23 3.71L17.23 3.71Q17.06 3.64 16.55 3.64L16.55 3.64ZM33.26 3.64L33.24 3.08L40.46 3.08L40.46 3.08Q40.47 4.14 40.52 5.28L40.52 5.28L39.98 5.30L39.98 5.30Q39.96 4.66 39.91 4.25L39.91 4.25L39.91 4.25Q39.87 3.89 39.81 3.80L39.81 3.80L39.81 3.80Q39.76 3.71 39.64 3.69L39.64 3.69L39.64 3.69Q39.55 3.68 38.96 3.68L38.96 3.68L36.58 3.68L36.58 3.68Q36.03 3.68 35.89 3.77L35.89 3.77L35.89 3.77Q35.77 3.86 35.77 4.33L35.77 4.33L35.77 6.28L35.77 6.28Q35.77 6.69 35.82 6.76L35.82 6.76L35.82 6.76Q35.89 6.84 36.23 6.84L36.23 6.84L38.34 6.84L38.34 6.84Q38.71 6.84 38.79 6.73L38.79 6.73L38.79 6.73Q38.87 6.63 38.88 6.14L38.88 6.14L38.88 5.61L39.39 5.63L39.39 8.97L38.88 8.97L38.88 8.24L38.88 8.24Q38.88 7.66 38.80 7.57L38.80 7.57L38.80 7.57Q38.72 7.46 38.37 7.46L38.37 7.46L36.27 7.46L36.27 7.46Q35.94 7.46 35.85 7.54L35.85 7.54L35.85 7.54Q35.77 7.63 35.77 7.89L35.77 7.89L35.77 11.20L35.77 11.20Q35.77 11.57 35.85 11.67L35.85 11.67L35.85 11.67Q35.94 11.77 36.21 11.77L36.21 11.77L36.21 11.77Q39.13 11.75 39.66 11.69L39.66 11.69L39.66 11.69Q40.17 11.63 40.26 11.38L40.26 11.38L40.26 11.36L40.27 11.35L40.50 10.17L40.97 10.25L40.63 12.41L33.52 12.41L33.52 11.87L33.89 11.87L33.89 11.87Q34.45 11.87 34.54 11.80L34.54 11.80L34.54 11.80Q34.63 11.72 34.63 11.33L34.63 11.33L34.63 4.24L34.63 4.24Q34.63 3.82 34.48 3.73L34.48 3.73L34.48 3.73Q34.31 3.64 33.65 3.64L33.65 3.64L33.26 3.64ZM58.43 3.64L58.42 3.08L65.60 3.08L65.60 3.08Q65.62 4.14 65.67 5.28L65.67 5.28L65.13 5.30L65.13 5.30Q65.11 4.66 65.06 4.25L65.06 4.25L65.06 4.25Q65.02 3.89 64.96 3.80L64.96 3.80L64.96 3.80Q64.91 3.71 64.79 3.69L64.79 3.69L64.79 3.69Q64.70 3.68 64.11 3.68L64.11 3.68L61.73 3.68L61.73 3.68Q61.18 3.68 61.04 3.77L61.04 3.77L61.04 3.77Q60.92 3.86 60.92 4.33L60.92 4.33L60.92 6.28L60.92 6.28Q60.92 6.69 60.97 6.76L60.97 6.76L60.97 6.76Q61.04 6.84 61.37 6.84L61.37 6.84L63.49 6.84L63.49 6.84Q63.85 6.84 63.94 6.74L63.94 6.74L63.94 6.74Q64.02 6.64 64.02 6.17L64.02 6.17L64.02 5.63L64.54 5.63L64.54 8.97L64.02 8.97L64.02 8.26L64.02 8.26Q64.02 7.68 63.94 7.57L63.94 7.57L63.94 7.57Q63.85 7.46 63.52 7.46L63.52 7.46L61.42 7.46L61.42 7.46Q61.09 7.46 61.00 7.54L61.00 7.54L61.00 7.54Q60.92 7.63 60.92 7.89L60.92 7.89L60.92 11.20L60.92 11.20Q60.92 11.60 60.98 11.73L60.98 11.73L60.98 11.73Q61.07 11.87 61.33 11.87L61.33 11.87L62.27 11.87L62.27 12.41L58.67 12.41L58.67 11.87L59.08 11.87L59.08 11.87Q59.59 11.87 59.68 11.79L59.68 11.79L59.68 11.79Q59.78 11.70 59.78 11.33L59.78 11.33L59.78 4.24L59.78 4.24Q59.78 3.79 59.61 3.71L59.61 3.71L59.61 3.71Q59.47 3.64 58.43 3.64L58.43 3.64ZM74.10 3.64L73.72 3.64L73.72 3.08L77.08 3.08L77.10 3.64L76.56 3.64L76.56 3.64Q76.13 3.64 75.97 3.73L75.97 3.73L75.97 3.73Q75.80 3.83 75.80 4.16L75.80 4.16L75.80 9.33L75.80 9.33Q75.80 9.63 75.84 9.78L75.84 9.78L75.84 9.78Q75.88 10.01 76.04 10.41L76.04 10.41L76.04 10.41Q76.21 10.80 76.51 11.09L76.51 11.09L76.51 11.09Q76.82 11.40 77.38 11.63L77.38 11.63L77.38 11.63Q77.95 11.85 78.73 11.85L78.73 11.85L78.73 11.85Q79.58 11.85 80.13 11.67L80.13 11.67L80.13 11.67Q80.69 11.48 81.00 11.22L81.00 11.22L81.00 11.22Q81.31 10.96 81.45 10.49L81.45 10.49L81.45 10.49Q81.62 9.95 81.63 9.66L81.63 9.66L81.63 9.66Q81.66 9.18 81.66 8.67L81.66 8.67L81.66 4.14L81.66 4.14Q81.66 3.81 81.52 3.72L81.52 3.72L81.52 3.72Q81.37 3.64 80.89 3.64L80.89 3.64L80.40 3.64L80.42 3.08L83.06 3.08L83.06 3.64L82.87 3.64L82.87 3.64Q82.54 3.64 82.43 3.75L82.43 3.75L82.43 3.75Q82.32 3.86 82.32 4.25L82.32 4.25L82.32 9.22L82.32 9.22Q82.32 12.67 78.73 12.67L78.73 12.67L78.73 12.67Q76.56 12.67 75.61 11.76L75.61 11.76L75.61 11.76Q74.68 10.86 74.68 9.41L74.68 9.41L74.68 4.14L74.68 4.14Q74.68 3.81 74.57 3.72L74.57 3.72L74.57 3.72Q74.46 3.64 74.10 3.64L74.10 3.64ZM91.08 5.35L90.58 5.33L90.58 5.33Q90.70 4.17 90.78 3.08L90.78 3.08L98.86 3.08L98.86 3.08Q98.78 4.13 98.75 4.53L98.75 4.53L98.75 4.53Q98.71 5.26 98.69 5.32L98.69 5.32L98.19 5.30L98.19 5.30Q98.27 4.34 98.27 4.16L98.27 4.16L98.27 4.16Q98.27 3.88 98.13 3.79L98.13 3.79L98.13 3.79Q97.96 3.69 97.56 3.69L97.56 3.69L95.95 3.69L95.95 3.69Q95.44 3.69 95.32 3.79L95.32 3.79L95.32 3.79Q95.22 3.87 95.22 4.36L95.22 4.36L95.22 11.22L95.22 11.22Q95.22 11.66 95.36 11.76L95.36 11.76L95.36 11.76Q95.52 11.87 96.03 11.87L96.03 11.87L96.59 11.87L96.61 12.41L92.91 12.40L92.91 11.87L93.13 11.87L93.13 11.87Q93.80 11.87 93.95 11.79L93.95 11.79L93.95 11.79Q94.09 11.70 94.09 11.28L94.09 11.28L94.09 4.48L94.09 4.48Q94.09 3.92 93.99 3.80L93.99 3.80L93.99 3.80Q93.89 3.69 93.47 3.69L93.47 3.69L92.00 3.69L92.00 3.69Q91.81 3.69 91.75 3.71L91.75 3.71L91.75 3.71Q91.68 3.72 91.57 3.72L91.57 3.72L91.57 3.72Q91.54 3.72 91.42 3.79L91.42 3.79L91.42 3.79Q91.34 3.84 91.31 3.86L91.31 3.86L91.31 3.86Q91.29 3.88 91.25 3.99L91.25 3.99L91.25 3.99Q91.22 4.05 91.19 4.14L91.19 4.14L91.19 4.14Q91.16 4.21 91.14 4.36L91.14 4.36L91.14 4.36Q91.12 4.59 91.12 4.61L91.12 4.61L91.12 4.61Q91.12 4.80 91.10 4.95L91.10 4.95L91.10 4.95Q91.10 5.02 91.10 5.15L91.10 5.15L91.10 5.15Q91.09 5.29 91.08 5.35L91.08 5.35ZM106.98 3.64L106.60 3.64L106.60 3.08L109.96 3.08L109.98 3.64L109.44 3.64L109.44 3.64Q109.01 3.64 108.86 3.73L108.86 3.73L108.86 3.73Q108.68 3.83 108.68 4.16L108.68 4.16L108.68 9.33L108.68 9.33Q108.68 9.63 108.72 9.78L108.72 9.78L108.72 9.78Q108.76 10.01 108.92 10.41L108.92 10.41L108.92 10.41Q109.09 10.80 109.39 11.09L109.39 11.09L109.39 11.09Q109.70 11.40 110.26 11.63L110.26 11.63L110.26 11.63Q110.83 11.85 111.61 11.85L111.61 11.85L111.61 11.85Q112.46 11.85 113.01 11.67L113.01 11.67L113.01 11.67Q113.57 11.48 113.88 11.22L113.88 11.22L113.88 11.22Q114.19 10.96 114.33 10.49L114.33 10.49L114.33 10.49Q114.50 9.95 114.51 9.66L114.51 9.66L114.51 9.66Q114.54 9.18 114.54 8.67L114.54 8.67L114.54 4.14L114.54 4.14Q114.54 3.81 114.40 3.72L114.40 3.72L114.40 3.72Q114.25 3.64 113.77 3.64L113.77 3.64L113.28 3.64L113.31 3.08L115.94 3.08L115.94 3.64L115.75 3.64L115.75 3.64Q115.42 3.64 115.31 3.75L115.31 3.75L115.31 3.75Q115.20 3.86 115.20 4.25L115.20 4.25L115.20 9.22L115.20 9.22Q115.20 12.67 111.61 12.67L111.61 12.67L111.61 12.67Q109.44 12.67 108.49 11.76L108.49 11.76L108.49 11.76Q107.56 10.86 107.56 9.41L107.56 9.41L107.56 4.14L107.56 4.14Q107.56 3.81 107.45 3.72L107.45 3.72L107.45 3.72Q107.34 3.64 106.98 3.64L106.98 3.64ZM124.01 3.64L123.62 3.64L123.63 3.08L126.85 3.08L126.85 3.08Q127.99 3.08 128.59 3.21L128.59 3.21L128.59 3.21Q129.23 3.37 129.70 3.75L129.70 3.75L129.70 3.75Q130.70 4.57 130.70 5.71L130.70 5.71L130.70 5.71Q130.70 6.43 130.23 7.04L130.23 7.04L130.23 7.04Q129.74 7.66 128.71 7.92L128.71 7.92L131.39 11.49L131.39 11.49Q131.70 11.87 132.00 11.87L132.00 11.87L132.60 11.87L132.62 12.41L130.59 12.41L127.60 8.10L127.43 8.10L127.43 8.10Q127.39 8.10 127.33 8.11L127.33 8.11L127.33 8.11Q127.28 8.11 127.26 8.11L127.26 8.11L127.26 8.11Q126.38 8.11 125.99 8.03L125.99 8.03L125.99 11.46L125.99 11.46Q125.99 11.76 126.13 11.81L126.13 11.81L126.13 11.81Q126.25 11.87 126.96 11.87L126.96 11.87L127.67 11.87L127.64 12.41L123.92 12.41L123.92 11.87L124.24 11.87L124.24 11.87Q124.70 11.87 124.77 11.81L124.77 11.81L124.77 11.81Q124.85 11.74 124.85 11.46L124.85 11.46L124.85 4.14L124.85 4.14Q124.85 3.82 124.66 3.73L124.66 3.73L124.66 3.73Q124.43 3.64 124.01 3.64L124.01 3.64ZM125.99 4.28L125.99 7.57L125.99 7.57Q126.17 7.70 126.88 7.71L126.88 7.71L126.88 7.71Q128.15 7.71 128.73 7.27L128.73 7.27L128.73 7.27Q129.32 6.84 129.32 5.92L129.32 5.92L129.32 5.92Q129.32 4.92 128.55 4.27L128.55 4.27L128.55 4.27Q127.79 3.64 126.41 3.64L126.41 3.64L126.41 3.64Q126.16 3.64 126.08 3.75L126.08 3.75L126.08 3.75Q125.99 3.84 125.99 4.28L125.99 4.28ZM140.39 3.64L140.38 3.08L147.59 3.08L147.59 3.08Q147.60 4.14 147.66 5.28L147.66 5.28L147.11 5.30L147.11 5.30Q147.10 4.66 147.04 4.25L147.04 4.25L147.04 4.25Q147 3.89 146.95 3.80L146.95 3.80L146.95 3.80Q146.89 3.71 146.77 3.69L146.77 3.69L146.77 3.69Q146.68 3.68 146.09 3.68L146.09 3.68L143.71 3.68L143.71 3.68Q143.17 3.68 143.02 3.77L143.02 3.77L143.02 3.77Q142.90 3.86 142.90 4.33L142.90 4.33L142.90 6.28L142.90 6.28Q142.90 6.69 142.95 6.76L142.95 6.76L142.95 6.76Q143.02 6.84 143.36 6.84L143.36 6.84L145.48 6.84L145.48 6.84Q145.84 6.84 145.92 6.73L145.92 6.73L145.92 6.73Q146.00 6.63 146.01 6.14L146.01 6.14L146.01 5.61L146.52 5.63L146.52 8.97L146.01 8.97L146.01 8.24L146.01 8.24Q146.01 7.66 145.93 7.57L145.93 7.57L145.93 7.57Q145.85 7.46 145.50 7.46L145.50 7.46L143.40 7.46L143.40 7.46Q143.07 7.46 142.98 7.54L142.98 7.54L142.98 7.54Q142.90 7.63 142.90 7.89L142.90 7.89L142.90 11.20L142.90 11.20Q142.90 11.57 142.98 11.67L142.98 11.67L142.98 11.67Q143.07 11.77 143.34 11.77L143.34 11.77L143.34 11.77Q146.26 11.75 146.79 11.69L146.79 11.69L146.79 11.69Q147.31 11.63 147.39 11.38L147.39 11.38L147.40 11.36L147.40 11.35L147.63 10.17L148.11 10.25L147.76 12.41L140.66 12.41L140.66 11.87L141.03 11.87L141.03 11.87Q141.59 11.87 141.67 11.80L141.67 11.80L141.67 11.80Q141.76 11.72 141.76 11.33L141.76 11.33L141.76 4.24L141.76 4.24Q141.76 3.82 141.61 3.73L141.61 3.73L141.61 3.73Q141.44 3.64 140.79 3.64L140.79 3.64L140.39 3.64ZM166.14 3.64L165.55 3.64L165.57 3.08L169.08 3.08L169.08 3.64L168.85 3.64L168.85 3.64Q168.30 3.64 168.13 3.73L168.13 3.73L168.13 3.73Q167.99 3.81 167.99 4.28L167.99 4.28L167.99 11.22L167.99 11.22Q167.99 11.68 168.10 11.77L168.10 11.77L168.10 11.77Q168.21 11.87 168.75 11.87L168.75 11.87L169.29 11.87L169.31 12.41L165.72 12.41L165.71 11.87L166.07 11.87L166.07 11.87Q166.63 11.87 166.75 11.77L166.75 11.77L166.75 11.77Q166.86 11.67 166.86 11.25L166.86 11.25L166.86 4.14L166.86 4.14Q166.86 3.77 166.76 3.71L166.76 3.71L166.76 3.71Q166.65 3.64 166.14 3.64L166.14 3.64ZM177.02 10.04L177.02 10.04L177.51 9.98L177.69 10.85L177.69 10.85Q177.80 11.33 177.87 11.41L177.87 11.41L177.87 11.41Q177.94 11.49 178.35 11.64L178.35 11.64L178.35 11.64Q179.19 11.95 180.09 11.95L180.09 11.95L180.09 11.95Q180.87 11.95 181.41 11.49L181.41 11.49L181.41 11.49Q181.95 11.04 181.95 10.26L181.95 10.26L181.95 10.26Q181.95 9.65 181.49 9.21L181.49 9.21L181.49 9.21Q181.01 8.76 180.15 8.30L180.15 8.30L179.58 7.98L179.58 7.98Q178.83 7.55 178.60 7.36L178.60 7.36L178.60 7.36Q178.24 7.08 177.93 6.59L177.93 6.59L177.93 6.59Q177.62 6.10 177.62 5.46L177.62 5.46L177.62 5.46Q177.62 4.39 178.46 3.68L178.46 3.68L178.46 3.68Q179.30 2.97 180.41 2.97L180.41 2.97L180.41 2.97Q180.69 2.97 181.04 3.04L181.04 3.04L181.04 3.04Q181.23 3.08 181.57 3.17L181.57 3.17L181.81 3.25L181.81 3.25Q181.90 3.25 181.95 3.16L181.95 3.16L181.95 3.16Q182 3.05 182 2.98L182 2.98L182.01 2.88L182.49 2.85L182.70 5.41L182.20 5.43L182.08 4.18L182.08 4.18Q181.33 3.62 180.17 3.62L180.17 3.62L180.17 3.62Q179.53 3.62 179.02 4.05L179.02 4.05L179.02 4.05Q178.54 4.47 178.54 5.12L178.54 5.12L178.54 5.12Q178.54 5.72 178.99 6.17L178.99 6.17L178.99 6.17Q179.42 6.60 180.29 7.08L180.29 7.08L181.06 7.50L181.06 7.50Q182.01 8.03 182.55 8.59L182.55 8.59L182.55 8.59Q183.08 9.15 183.08 9.92L183.08 9.92L183.08 9.92Q183.08 10.99 182.23 11.76L182.23 11.76L182.23 11.76Q181.36 12.54 179.90 12.54L179.90 12.54L179.90 12.54Q179.34 12.54 178.84 12.41L178.84 12.41L178.84 12.41Q178.34 12.29 178.28 12.29L178.28 12.29L178.28 12.29Q178.03 12.29 178.03 12.58L178.03 12.58L178.04 12.76L177.56 12.80L177.56 12.80Q177.50 12.41 177.02 10.04ZM200.85 3.64L200.83 3.08L203.01 3.08L208.74 10.48L208.74 4.14L208.74 4.14Q208.74 3.81 208.59 3.72L208.59 3.72L208.59 3.72Q208.43 3.64 207.98 3.64L207.98 3.64L207.48 3.64L207.51 3.08L210.49 3.08L210.49 3.64L210.17 3.64L210.17 3.64Q209.71 3.64 209.56 3.75L209.56 3.75L209.56 3.75Q209.41 3.86 209.41 4.25L209.41 4.25L209.41 12.32L209.41 12.47L209.41 12.47Q209.41 12.52 209.39 12.57L209.39 12.57L209.39 12.57Q209.38 12.61 209.34 12.64L209.34 12.64L209.34 12.64Q209.33 12.65 209.28 12.65L209.28 12.65L209.08 12.65L209.02 12.65L209.00 12.65L208.97 12.64L208.97 12.64Q208.94 12.64 208.93 12.63L208.93 12.63L208.93 12.63Q208.91 12.61 208.91 12.60L208.91 12.60L208.91 12.60Q208.91 12.58 208.90 12.57L208.90 12.57L208.90 12.57Q208.87 12.54 208.84 12.50L208.84 12.50L208.84 12.50Q208.83 12.48 208.81 12.45L208.81 12.45L208.81 12.45Q208.79 12.41 208.78 12.40L208.78 12.40L202.67 4.56L202.74 11.22L202.74 11.22Q202.74 11.67 202.90 11.77L202.90 11.77L202.90 11.77Q203.06 11.87 203.77 11.87L203.77 11.87L204.01 11.87L204.01 12.41L201.07 12.41L201.07 11.87L201.50 11.87L201.50 11.87Q201.87 11.87 201.98 11.76L201.98 11.76L201.98 11.76Q202.08 11.66 202.08 11.25L202.08 11.25L202.08 3.80L201.94 3.64L200.85 3.64ZM218.61 7.83L218.61 7.83L218.61 7.83Q218.61 6.62 219.02 5.68L219.02 5.68L219.02 5.68Q219.43 4.72 220.12 4.12L220.12 4.12L220.12 4.12Q220.81 3.51 221.68 3.19L221.68 3.19L221.68 3.19Q222.52 2.88 223.47 2.88L223.47 2.88L223.47 2.88Q224.72 2.88 225.78 3.40L225.78 3.40L225.78 3.40Q226.86 3.93 227.57 5.07L227.57 5.07L227.57 5.07Q228.27 6.17 228.27 7.75L228.27 7.75L228.27 7.75Q228.27 8.70 227.96 9.54L227.96 9.54L227.96 9.54Q227.66 10.38 227.05 11.10L227.05 11.10L227.05 11.10Q226.45 11.81 225.51 12.22L225.51 12.22L225.51 12.22Q224.55 12.63 223.36 12.64L223.36 12.64L223.36 12.64Q222.22 12.64 221.29 12.23L221.29 12.23L221.29 12.23Q220.35 11.83 219.79 11.14L219.79 11.14L219.79 11.14Q219.21 10.45 218.92 9.60L218.92 9.60L218.92 9.60Q218.61 8.72 218.61 7.83ZM219.87 7.38L219.87 7.38L219.87 7.38Q219.87 8.52 220.30 9.60L220.30 9.60L220.30 9.60Q220.71 10.64 221.63 11.33L221.63 11.33L221.63 11.33Q222.54 12.03 223.73 12.04L223.73 12.04L223.73 12.04Q225.11 12.04 226.04 11.01L226.04 11.01L226.04 11.01Q226.99 9.97 226.99 8.10L226.99 8.10L226.99 8.10Q226.99 5.99 225.83 4.72L225.83 4.72L225.83 4.72Q224.68 3.46 223.17 3.45L223.17 3.45L223.17 3.45Q222.65 3.45 222.11 3.65L222.11 3.65L222.11 3.65Q221.57 3.85 221.06 4.25L221.06 4.25L221.06 4.25Q220.51 4.68 220.19 5.48L220.19 5.48L220.19 5.48Q219.87 6.27 219.87 7.38ZM236.77 3.64L236.53 3.64L236.53 3.08L239.63 3.08L239.62 3.64L239.31 3.64L239.31 3.64Q238.49 3.64 238.49 3.94L238.49 3.94L238.49 3.94Q238.49 4.03 238.52 4.09L238.52 4.09L240.94 10.76L243.25 4.85L243.15 4.57L243.15 4.57Q243.12 4.52 243.10 4.44L243.10 4.44L243.10 4.44Q243.08 4.36 243.06 4.31L243.06 4.31L243.06 4.31Q243.04 4.25 243.02 4.22L243.02 4.22L243.02 4.22Q243.00 4.16 242.90 3.96L242.90 3.96L242.90 3.96Q242.82 3.80 242.70 3.71L242.70 3.71L242.70 3.71Q242.62 3.64 242.45 3.64L242.45 3.64L241.77 3.64L241.77 3.08L245.10 3.08L245.10 3.64L244.36 3.64L244.36 3.64Q244.13 3.64 244.06 3.68L244.06 3.68L244.06 3.68Q244.00 3.72 243.99 3.86L243.99 3.86L243.99 3.86Q243.99 4.00 244.24 4.76L244.24 4.76L246.29 10.72L248.78 4.18L248.78 4.18Q248.83 4.01 248.83 3.94L248.83 3.94L248.83 3.94Q248.83 3.75 248.66 3.69L248.66 3.69L248.66 3.69Q248.51 3.64 248.15 3.64L248.15 3.64L247.78 3.64L247.78 3.08L250.18 3.08L250.20 3.64L250.02 3.64L250.02 3.64Q249.68 3.64 249.58 3.77L249.58 3.77L249.58 3.77Q249.46 3.96 249.21 4.60L249.21 4.60L246.12 12.64L245.88 12.64L243.50 5.64L240.78 12.63L240.56 12.63L237.59 4.52L237.59 4.52Q237.38 3.96 237.21 3.79L237.21 3.79L237.21 3.79Q237.06 3.63 236.77 3.64L236.77 3.64Z"></path></g></svg>