<svg data-v-d3f97b9e="" xmlns="http://www.w3.org/2000/svg" viewBox="0 0 59.99999284744348 60"><!----><!----><!----><!----><g data-v-d3f97b9e="" id="41d94ecb-25e1-4d64-b001-ba87f1e3486e" transform="matrix(0.4687499441206522,0,0,0.4687499441206522,-2.3841900542720396e-7,0.000010989725808485673)" stroke="none" fill="black"><path d="M126 73a2 2 0 0 0 0-4H98.3a2 2 0 0 0-2 1.6 33 33 0 0 1-64.68 0 2 2 0 0 0-2-1.6H2a2 2 0 0 0 0 4h26.1a37 37 0 0 0 15.1 21.56L38.13 100H2a2 2 0 0 0 0 4h37a2 2 0 0 0 1.46-.64l6.24-6.69A36.91 36.91 0 0 0 96 82.48l7.17 5.6a2 2 0 0 0 1.23.42H126a2 2 0 0 0 0-4h-20.87L98 78.94l-.12-.08a36.61 36.61 0 0 0 2-5.87z"></path><path d="M41 64a2 2 0 0 0-4 0 26.78 26.78 0 0 0 10.53 21.39A2 2 0 0 0 50 82.21 22.81 22.81 0 0 1 41 64zM64 37a2 2 0 0 0 0 4 23 23 0 0 1 0 46 22.65 22.65 0 0 1-4.82-.51 2 2 0 0 0-.85 3.91A26.68 26.68 0 0 0 64 91a27 27 0 0 0 0-54z"></path><path d="M64 81a2 2 0 0 0 0-4 13 13 0 1 1 13-13 2 2 0 0 0 4 0 17 17 0 1 0-17 17zM99.9 55a37.19 37.19 0 0 0-11.24-18.57 2 2 0 0 0-2.67 3 33.11 33.11 0 0 1 10.34 18 2 2 0 0 0 2 1.6H112a2 2 0 0 0 2-2v-6.41a7 7 0 1 0-4 .15V55z"></path><circle cx="64" cy="64" r="7"></circle><path d="M2 11h26a2 2 0 0 0 1.46-.64L35.4 4h49.05l16.17 10.67a2 2 0 0 0 1.1.33H126a2 2 0 0 0 0-4h-23.67L86.16.33A2 2 0 0 0 85.05 0H34.53a2 2 0 0 0-1.46.64L27.13 7H2a2 2 0 0 0 0 4z"></path><path d="M2 20h32a2 2 0 0 0 1.46-.64l6.53-7a2 2 0 0 0-2.92-2.73L33.13 16H2a2 2 0 0 0 0 4zM2 28h36.13l5.07 5.44A37 37 0 0 0 28.1 55H18v-9.25a7 7 0 1 0-4-.11V57a2 2 0 0 0 2 2h13.7a2 2 0 0 0 2-1.6A33.1 33.1 0 0 1 64 31a32.72 32.72 0 0 1 12.57 2.48 2 2 0 1 0 1.53-3.7 36.91 36.91 0 0 0-31.4 1.54l-6.24-6.69A2 2 0 0 0 39 24H2a2 2 0 0 0 0 4zM126 24H99.33L83.16 13.33a2 2 0 0 0-1.1-.33H58.71a7 7 0 1 0 0 4h22.74l16.18 10.67a2 2 0 0 0 1.1.33H126a2 2 0 0 0 0-4zM126 113h-24.27a2 2 0 0 0-1.1.33L84.45 124H35.4l-5.94-6.36A2 2 0 0 0 28 117H2a2 2 0 0 0 0 4h25.13l5.94 6.36a2 2 0 0 0 1.46.64h50.52a2 2 0 0 0 1.1-.33L102.33 117H126a2 2 0 0 0 0-4z"></path><path d="M2 112h31.13l5.94 6.36a2 2 0 1 0 2.93-2.72l-6.53-7A2 2 0 0 0 34 108H2a2 2 0 0 0 0 4zM126 100H98.73a2 2 0 0 0-1.1.33L81.45 111H58.71a7 7 0 1 0 0 4h23.34a2 2 0 0 0 1.1-.33L99.33 104H126a2 2 0 0 0 0-4z"></path></g><!----></svg>